<?xml version="1.0" encoding="utf-8"?>
<!-- Generator: Adobe Illustrator 23.0.3, SVG Export Plug-In . SVG Version: 6.00 Build 0)  -->
<svg version="1.1" id="Capa_1" xmlns="http://www.w3.org/2000/svg" xmlns:xlink="http://www.w3.org/1999/xlink" x="0px" y="0px"
	 viewBox="0 0 305.3 85" style="enable-background:new 0 0 305.3 85;" xml:space="preserve">
<style type="text/css">
	.st0{fill:#FFFFFF;}
	.st1{font-family:'MyriadPro-Regular';}
	.st2{font-size:60px;}
	.st3{font-size:48px;}
</style>
<g>
	<text transform="matrix(1 0 0 1 10.5783 59.49)" class="st0 st1 st2">eco</text>
</g>
<g>
	<text transform="matrix(1 0 0 1 183.5916 56.7688)" class="st0 st1 st3">SHOP</text>
</g>
<g>
	<g>
		<path class="st0" d="M146.7,54.2c-0.1,0.2-0.4,0.3-0.5,0c-3.4-9-3.4-17.2,2-24.9c8.3-12,20.4-13.7,34.4-11.6
			c-5.5,3.5-6.4,8.6-7.2,13.9c-1.9,12.6-7.4,22-21.4,23.8c-0.9,0.1-2.3,1.8-2.4,2.9c-0.3,2.9-0.1,5.8-0.1,9.2c0,0.1-0.1,0.2-0.1,0.2
			c-2.4,1.2-3.4,0.2-3.2-3c0.5-10.5,3.4-20.3,8.6-29.4c0.8-1.4,1.7-2.8,2.8-4.7C154,34.7,150.8,40.6,146.7,54.2z"/>
		<path class="st0" d="M114.5,33.7c13-5.9,23.6-0.8,26.6,13.5c0.1,0.3-0.3,0.4-0.5,0.2c-0.1-0.1-10.2-6.5-11.5-5.7l10.7,9
			c0.1,0.1,0,0.3-0.1,0.4c-7.1,3.8-14.7,1.3-19.1-6.3c-2-3.5-4.1-7-6.2-10.7C114.3,33.9,114.4,33.8,114.5,33.7z"/>
	</g>
</g>
</svg>
